<?xml version="1.0" encoding="UTF-8" standalone="no"?><!DOCTYPE svg PUBLIC "-//W3C//DTD SVG 1.1//EN" "http://www.w3.org/Graphics/SVG/1.1/DTD/svg11.dtd"><svg width="100%" height="100%" viewBox="0 0 14937 5713" version="1.1" xmlns="http://www.w3.org/2000/svg" xmlns:xlink="http://www.w3.org/1999/xlink" xml:space="preserve" xmlns:serif="http://www.serif.com/" style="fill-rule:evenodd;clip-rule:evenodd;stroke-linejoin:round;stroke-miterlimit:2;"><rect id="Artboard1" x="0" y="0" width="14936.4" height="5712.5" style="fill:none;"/><clipPath id="_clip1"><rect x="0" y="0" width="14936.4" height="5712.5"/></clipPath><g clip-path="url(#_clip1)"><g id="Designs"><g><clipPath id="_clip2"><rect x="0.568" y="475" width="14936.4" height="4862.5"/></clipPath><g clip-path="url(#_clip2)"><path d="M5691.29,3829.87c171.045,0 359.666,11.07 527.825,62.243c137.906,41.966 286.874,117.103 373.284,246.469c135.659,203.106 79.262,472.958 -98.64,619.162c-218.623,179.673 -541.923,202.15 -802.469,202.15l-458.892,4.554l0,-234.424l458.892,-1.65c116.468,0 224.234,-17.608 335.573,-57.81c196.983,-71.131 215.606,-369.913 64.213,-497.408c-112.34,-94.609 -279.14,-110.999 -399.786,-110.999l-458.892,-3.095l0,-227.734l458.892,-1.458Z" style="fill:#fff;stroke:#000;stroke-width:29.57px;"/><path id="E" d="M6704.7,4289.11l0,670.958l1108.99,0l0,-153.359l-822.178,0l0,-115.023l822.178,0l0,-134.19l-822.178,0l0,-115.024l822.178,0l0,-153.362l-1108.99,0Z" style="fill:#fff;stroke:#000;stroke-width:29.57px;stroke-miterlimit:1.5;"/><path id="S" d="M9018.27,4442.47l0,-153.362l-1032.51,0c0,0 -47.801,12.78 -95.602,38.342c-35.567,19.017 -38.24,115.02 -38.24,115.02l0,115.024c0,0 7.138,81.299 38.24,95.851c47.801,22.363 95.602,38.339 95.602,38.339c0,0 513.717,0.244 688.378,0.326c31.663,0.014 57.32,25.686 57.32,57.349l0,0.014c0,31.666 -25.664,57.341 -57.334,57.348c-195.247,0.054 -822.206,0.224 -822.206,0.224l0,153.121l1032.51,0c0,0 72.561,-12.777 94.868,-38.339c22.307,-25.561 38.974,-115.02 38.974,-115.02l0,-115.02c0,0 -15.932,-73.487 -38.239,-95.854c-22.307,-22.368 -95.603,-38.339 -95.603,-38.339l-688.875,0c-31.755,0 -57.497,-25.743 -57.497,-57.498l0,-0.028c0,-31.755 25.742,-57.498 57.497,-57.498l822.717,0Z" style="fill:#fff;stroke:#000;stroke-width:29.57px;stroke-miterlimit:1.5;"/><rect id="I" x="9056.5" y="4289.11" width="286.807" height="670.959" style="fill:#fff;stroke:#000;stroke-width:29.57px;stroke-miterlimit:1.5;"/><path id="G" d="M9515.38,4289.11c0,0 -73.296,12.78 -95.603,38.342c-22.307,25.558 -38.243,115.02 -38.243,115.02l0,364.237c0,0 15.216,89.42 37.523,114.981c22.307,25.559 96.323,38.378 96.323,38.378l898.66,0c0,0 73.295,-12.777 95.602,-38.338c22.311,-25.562 38.243,-115.021 38.243,-115.021l0,-115.023c0,0 -15.932,-73.487 -38.243,-95.851c-22.307,-22.364 -95.602,-38.339 -95.602,-38.339l-458.892,0l0,134.19l248.433,0c31.755,0 57.497,25.742 57.497,57.497l0,0.029c0,31.755 -25.742,57.497 -57.497,57.497l-461.295,0c-19.613,0 -38.42,-7.79 -52.287,-21.657c-13.867,-13.867 -21.658,-32.674 -21.658,-52.287l0,-216.351c0,-19.61 7.791,-38.417 21.658,-52.284c13.867,-13.867 32.674,-21.658 52.287,-21.658l805.599,0l0,-153.362l-1032.51,0Z" style="fill:#fff;stroke:#000;stroke-width:29.57px;stroke-miterlimit:1.5;"/><path id="N" d="M10586.1,4960.09l286.807,0l0,-402.572l669.22,402.572l286.807,0l0,-670.959l-286.807,0l0,402.576l-669.22,-402.576l-286.807,0l0,670.959Z" style="fill:#fff;stroke:#000;stroke-width:29.57px;stroke-miterlimit:1.5;"/><path id="S1" serif:id="S" d="M13033.6,4442.47l0,-153.362l-1032.51,0c0,0 -47.801,12.78 -95.602,38.342c-35.567,19.017 -38.239,115.02 -38.239,115.02l0,115.024c0,0 7.137,81.299 38.239,95.851c47.801,22.363 95.602,38.339 95.602,38.339c0,0 513.717,0.244 688.379,0.326c31.663,0.014 57.32,25.686 57.32,57.349l0,0.014c0,31.666 -25.665,57.341 -57.331,57.348c-195.251,0.054 -822.209,0.224 -822.209,0.224l0,153.121l1032.51,0c0,0 72.561,-12.777 94.868,-38.339c22.307,-25.561 38.977,-115.02 38.977,-115.02l0,-115.02c0,0 -15.936,-73.487 -38.243,-95.854c-22.307,-22.368 -95.602,-38.339 -95.602,-38.339l-688.875,0c-31.755,0 -57.498,-25.743 -57.498,-57.498l0,-0.028c0,-31.755 25.743,-57.498 57.498,-57.498l822.72,0Z" style="fill:#fff;stroke:#000;stroke-width:29.57px;stroke-miterlimit:1.5;"/><path d="M12206.2,2706.41l832.709,-717.737l871.572,0l-1258.75,1084.95l2285.2,1886.44l-867.988,0l-1843.25,-1519.22l-850.699,733.245l-871.573,0l1276.74,-1100.46l-1316.35,-1084.95l871.572,0l870.816,717.737Z" style="fill:#fff;stroke:#000;stroke-width:29.57px;stroke-linecap:round;stroke-miterlimit:1.5;"/><path d="M7571.85,1988.68l2777.8,0l0,402.576l-2283.13,0l0,402.576l2283.13,0l0,460.087l-2283.13,0l0,460.085l2283.13,0l0,460.088l-2777.8,0l0,-2185.41Z" style="fill:#fff;stroke:#000;stroke-width:29.57px;stroke-linecap:round;stroke-miterlimit:1.5;"/><path d="M3363.99,1991.96l3446.26,0c5.264,-0.003 10.513,0.554 15.656,1.665c170.988,37.097 332.599,101.952 444.326,247.939c196.603,256.89 178.697,765.081 -97.395,964.417c-90.236,65.15 -220.553,96.766 -325.202,116.944l-1575.1,0l0,1641.52l-631.885,0l0,-2055.6l2044.31,0c55.57,0 111.535,-57.296 111.535,-95.851l0,-306.725c0,-57.107 -55.723,-115.02 -111.51,-115.02l-3069.51,0l933.858,1495.88l-875.097,0l-728.786,-1204.02l-2151.87,1204.02l-793.024,0l1882.08,-3039.01l769.425,-0.075l711.917,1143.92Zm-1095,-634.809l-1096.66,1741.3l1592.41,-919.715l-495.747,-821.584Z" style="fill:#fff;stroke:#000;stroke-width:29.57px;stroke-linecap:round;stroke-miterlimit:1.5;"/></g></g></g></g><g id="Apex"></g></svg>