<?xml version="1.0" encoding="UTF-8" standalone="no"?><!DOCTYPE svg PUBLIC "-//W3C//DTD SVG 1.1//EN" "http://www.w3.org/Graphics/SVG/1.1/DTD/svg11.dtd"><svg width="100%" height="100%" viewBox="0 0 4267 1167" version="1.1" xmlns="http://www.w3.org/2000/svg" xmlns:xlink="http://www.w3.org/1999/xlink" xml:space="preserve" xmlns:serif="http://www.serif.com/" style="fill-rule:evenodd;clip-rule:evenodd;stroke-linejoin:round;stroke-miterlimit:2;"><g id="Designs"><path d="M1632.53,842.832c48.192,0 101.336,3.119 148.715,17.537c38.855,11.824 80.827,32.994 105.173,69.443c38.222,57.225 22.332,133.256 -27.792,174.449c-61.597,50.623 -152.687,56.956 -226.096,56.956l-129.293,1.283l0,-66.049l129.293,-0.465c32.815,0 63.178,-4.961 94.548,-16.288c55.5,-20.041 60.747,-104.223 18.092,-140.145c-31.652,-26.656 -78.648,-31.274 -112.64,-31.274l-129.293,-0.872l0,-64.164l129.293,-0.411Z" style="fill:#fff;stroke:#000;stroke-width:8.33px;"/><path id="E" d="M1918.06,972.222l0,189.043l312.457,0l0,-43.209l-231.649,0l0,-32.408l231.649,0l0,-37.808l-231.649,0l0,-32.408l231.649,0l0,-43.21l-312.457,0Z" style="fill:#fff;stroke:#000;stroke-width:8.33px;stroke-miterlimit:1.5;"/><path id="S" d="M2569.91,1015.43l0,-43.21l-290.909,0c0,0 -13.468,3.601 -26.936,10.803c-10.021,5.358 -10.774,32.407 -10.774,32.407l0,32.408c0,0 2.011,22.906 10.774,27.006c13.468,6.301 26.936,10.802 26.936,10.802c0,0 144.74,0.069 193.951,0.092c8.921,0.004 16.15,7.237 16.15,16.158c0,0.001 0,0.003 0,0.004c0,8.922 -7.231,16.156 -16.154,16.158c-55.011,0.015 -231.657,0.063 -231.657,0.063l0,43.142l290.909,0c0,0 20.444,-3.6 26.729,-10.802c6.285,-7.202 10.981,-32.407 10.981,-32.407l0,-32.407c0,0 -4.489,-20.705 -10.774,-27.007c-6.285,-6.302 -26.936,-10.802 -26.936,-10.802l-194.091,0c-8.947,0 -16.2,-7.253 -16.2,-16.2c0,-0.003 0,-0.005 0,-0.008c0,-8.947 7.253,-16.2 16.2,-16.2c55.091,0 231.801,0 231.801,0Z" style="fill:#fff;stroke:#000;stroke-width:8.33px;stroke-miterlimit:1.5;"/><rect id="I" x="2580.68" y="972.222" width="80.808" height="189.043" style="fill:#fff;stroke:#000;stroke-width:8.33px;stroke-miterlimit:1.5;"/><path id="G" d="M2709.97,972.222c0,0 -20.651,3.601 -26.936,10.803c-6.285,7.201 -10.775,32.407 -10.775,32.407l0,102.624c0,0 4.287,25.194 10.572,32.396c6.285,7.201 27.139,10.813 27.139,10.813l253.198,0c0,0 20.651,-3.6 26.936,-10.802c6.286,-7.202 10.775,-32.407 10.775,-32.407l0,-32.408c0,0 -4.489,-20.705 -10.775,-27.006c-6.285,-6.301 -26.936,-10.802 -26.936,-10.802l-129.293,0l0,37.808l69.996,0c8.947,0 16.2,7.253 16.2,16.2c0,0.003 0,0.005 0,0.008c0,8.947 -7.253,16.2 -16.2,16.2c-30.468,0 -96.261,0 -129.97,0c-5.526,0 -10.825,-2.195 -14.732,-6.102c-3.907,-3.907 -6.102,-9.206 -6.102,-14.732c0,-17.769 0,-43.187 0,-60.957c0,-5.525 2.195,-10.824 6.102,-14.731c3.907,-3.907 9.206,-6.102 14.732,-6.102c59.673,0 226.978,0 226.978,0l0,-43.21l-290.909,0Z" style="fill:#fff;stroke:#000;stroke-width:8.33px;stroke-miterlimit:1.5;"/><path id="N" d="M3011.66,1161.27l80.808,0l0,-113.425l188.553,113.425l80.808,0l0,-189.043l-80.808,0l0,113.426l-188.553,-113.426l-80.808,0l0,189.043Z" style="fill:#fff;stroke:#000;stroke-width:8.33px;stroke-miterlimit:1.5;"/><path id="S1" serif:id="S" d="M3701.22,1015.43l0,-43.21l-290.91,0c0,0 -13.468,3.601 -26.936,10.803c-10.021,5.358 -10.774,32.407 -10.774,32.407l0,32.408c0,0 2.011,22.906 10.774,27.006c13.468,6.301 26.936,10.802 26.936,10.802c0,0 144.74,0.069 193.951,0.092c8.921,0.004 16.15,7.237 16.15,16.158c0,0.001 0,0.003 0,0.004c0,8.922 -7.231,16.156 -16.153,16.158c-55.012,0.015 -231.658,0.063 -231.658,0.063l0,43.142l290.909,0c0,0 20.444,-3.6 26.729,-10.802c6.285,-7.202 10.982,-32.407 10.982,-32.407l0,-32.407c0,0 -4.49,-20.705 -10.775,-27.007c-6.285,-6.302 -26.936,-10.802 -26.936,-10.802l-194.091,0c-8.947,0 -16.2,-7.253 -16.2,-16.2c0,-0.003 0,-0.005 0,-0.008c0,-8.947 7.253,-16.2 16.2,-16.2c55.092,0 231.802,0 231.802,0Z" style="fill:#fff;stroke:#000;stroke-width:8.33px;stroke-miterlimit:1.5;"/></g><g id="Apex"><path d="M3468.11,526.297l234.616,-202.223l245.566,0l-354.652,305.686l643.856,531.505l-244.556,0l-519.336,-428.042l-239.685,206.592l-245.566,0l359.721,-310.055l-370.883,-305.686l245.566,0l245.353,202.223Z" style="fill:#174769;stroke:#000;stroke-width:8.33px;stroke-linecap:round;stroke-miterlimit:1.5;"/><path d="M2162.38,324.074l782.648,0l0,113.426l-643.272,0l0,113.426l643.272,0l0,129.63l-643.272,0l0,129.629l643.272,0l0,129.63l-782.648,0l0,-615.741Z" style="fill:#174769;stroke:#000;stroke-width:8.33px;stroke-linecap:round;stroke-miterlimit:1.5;"/><path d="M976.814,325l970.986,0c1.483,-0.001 2.962,0.156 4.411,0.469c48.176,10.452 93.71,28.725 125.189,69.857c55.393,72.379 50.348,215.562 -27.441,271.725c-25.424,18.356 -62.141,27.264 -91.626,32.949l-443.785,0l0,462.5l-178.034,0l0,-579.167l575.985,0c15.657,0 31.425,-16.143 31.425,-27.006l0,-86.42c0,-16.09 -15.7,-32.407 -31.418,-32.407l-864.835,0l263.115,421.464l-246.559,0l-205.336,-339.234l-606.289,339.234l-223.435,0l530.278,-856.242l216.786,-0.021l200.583,322.299Zm-308.518,-178.858l-308.986,490.612l448.663,-259.13l-139.677,-231.482Z" style="fill:#174769;stroke:#000;stroke-width:8.33px;stroke-linecap:round;stroke-miterlimit:1.5;"/></g></svg>